# xmcd CD database file
#
# Track frame offsets:
#	150
#	21407
#	36950
#	58200
#
# Disc length: 982 seconds
#
# Revision: 0
# Processed by: cddbd v1.5PL3 Copyright (c) Steve Scherf et al.
# Submitted via: CDex 1.51
#
DISCID=3403d404
DTITLE=shela - クローバー
DYEAR=2003
DGENRE=JPop
TTITLE0=I believe in love
TTITLE1=Smile
TTITLE2=I believe in love -instrumental-
TTITLE3=Smile -instrumental-
EXTD=YEAR: 2003
EXTT0=
EXTT1=
EXTT2=
EXTT3=
PLAYORDER=
